<?xml version="1.0" encoding="utf-8"?>
<!-- Generator: Adobe Illustrator 27.5.0, SVG Export Plug-In . SVG Version: 6.00 Build 0)  -->
<svg version="1.1" xmlns="http://www.w3.org/2000/svg" xmlns:xlink="http://www.w3.org/1999/xlink" x="0px" y="0px"
	 viewBox="0 0 500 500" style="enable-background:new 0 0 500 500;" xml:space="preserve">
<g id="BACKGROUND">
	<rect style="fill:#FFFFFF;" width="500" height="500"/>
</g>
<g id="OBJECTS">
	<g>
		<g>
			<g>
				<g>
					<g>
						<path style="fill:#F3AF27;" d="M277.918,84.066c0,0-2.211,0.681-3.743-0.851c-1.531-1.531-0.512-3.913-3.403-4.253
							c-2.894-0.34-7.656,1.021-8.508,2.212c-0.85,1.191-2.894,3.232-2.211,4.594c0.681,1.362,2.211,2.552,0.511,3.914
							c-1.701,1.361-2.894,4.594-5.445,1.701c-2.552-2.893-8.678-3.403-9.698-3.573c-1.021-0.17-2.891-3.914-3.573-5.274
							c-0.679-1.361-3.911-2.552-5.442-2.382c-1.531,0.17-2.555,1.191-4.425,0.511c-1.872-0.681-0.683-3.743-4.083-4.083
							c-3.404-0.34-4.594-1.871-3.573-2.722c1.021-0.851,4.763-0.681,2.722-3.744c-2.042-3.063-3.742-2.892-2.553-4.253
							c1.193-1.361,2.553-1.701,0.342-3.742c-2.212-2.042-1.19-3.915-3.232-2.723c-2.042,1.191-2.553,4.423-5.276,3.573
							c-2.721-0.85-5.445-3.403-7.315-2.212c-1.872,1.191-9.016,1.531-11.398,1.701c-2.383,0.17-5.786,0.681-6.808,1.872
							c-1.02,1.191-3.913,2.382-6.294,2.552c-2.383,0.17-3.233,0.851-4.594,2.042c-1.362,1.191,1.02,2.382-4.425,1.021
							c-5.442-1.361-7.656-1.36-9.018-3.232c-1.36-1.872-4.594-0.34-4.594,2.212c0,2.552-3.571,5.785-5.785,7.146
							c-2.211,1.361-9.355,7.486-8.677,11.229c0.681,3.743,2.042,6.125-0.169,7.826c-2.213,1.702-6.807,7.146-10.209,7.146
							c-3.402,0-4.083,2.381-4.083,3.913c0,1.531-1.872,2.722-4.083,4.083c-2.214,1.361-1.191,4.934-2.383,7.146
							c-1.191,2.211-3.572,1.191-3.572,3.063c0,1.871,1.872,3.402-0.853,5.274c-2.722,1.872-4.081,6.976-2.722,8.507
							c1.362,1.531,2.383,2.382,1.532,4.253c-0.852,1.872-1.362,0.34-0.681,4.763c0.681,4.424,3.063,9.698-0.682,12.591
							c-3.742,2.893-6.123,3.403-3.742,5.275c2.383,1.871,2.383,3.573,2.211,6.125c-0.17,2.552,0.852,8.337,2.894,8.506
							c2.042,0.17,1.99-1.709,2.721-1.02c0.666,0.624-0.51,3.232,1.193,3.573c1.7,0.341,3.061,3.743,3.061,3.743
							s1.532-0.68,3.232,2.382s-2.211,4.764,0.681,7.146c2.892,2.381,5.614,5.613,9.697,7.826c4.083,2.211,7.145,5.104,9.188,7.146
							c2.042,2.041,5.614,0.169,7.656-0.852c2.041-1.021,11.232-2.211,14.123-0.511c2.892,1.702,3.913,0.681,5.955,0.171
							c2.042-0.511,5.614-3.064,7.315-2.382c1.703,0.68,2.893,1.7,4.765-0.681c1.87-2.382,7.316-2.554,9.698-2.382
							c2.381,0.169,5.445,2.721,6.125,5.104c0.681,2.382,3.231,3.912,5.273,3.573c2.043-0.341,4.935-1.703,6.295-1.021
							c1.362,0.68,2.552,2.893,4.084,3.742c1.53,0.852,2.041,2.383,1.53,3.915c-0.511,1.531-2.891,6.465-2.041,8.166
							c0.852,1.701,0,2.042-1.021,3.573c-1.021,1.532-3.742,2.042-1.87,5.104c1.87,3.063,6.125,9.527,9.188,12.589
							c3.063,3.063,4.081,8.167,4.764,11.06c0.68,2.894,3.742,4.936,4.253,6.977c0.511,2.042-2.383,3.403-1.7,6.636
							c0.679,3.232,2.551,7.825,1.872,10.208c-0.683,2.381-2.383,2.553-2.894,3.064c-0.511,0.509-1.7,3.572-1.7,5.442
							c0,1.872-0.342,5.955-1.532,7.656c-1.192,1.703-3.403,3.573-2.723,7.656s1.02,6.977,3.572,8.849
							c2.552,1.87,3.573,6.636,4.594,9.697c1.021,3.064,2.724,3.064,3.233,5.785c0.511,2.721,0.853,7.486,1.532,9.697
							c0.679,2.212,2.042,4.255,1.359,7.997c-0.681,3.743,2.722,9.868,5.445,11.399c2.721,1.531,1.873,4.424,3.232,6.636
							c1.363,2.211,2.893,3.062,2.553,6.125c-0.339,3.062-2.553,2.552-2.042,4.424c0.511,1.87,1.872,2.722,1.872,4.253
							c0,1.532,1.872,1.362,3.403,2.894c1.532,1.531,4.253,1.7,6.125,0.511c1.871-1.193,4.593-0.342,5.274-0.342
							c0.68,0,1.021-2.383,2.383-2.383c1.359,0,2.55-1.19,6.294-0.339c3.742,0.85,6.125-0.341,6.977-0.682
							c0.85-0.339,3.573,1.192,5.953-0.68c2.383-1.872,6.125-8.847,8.508-10.209c2.383-1.361,6.297-8.847,6.976-10.208
							c0.681-1.361,4.425-2.042,4.595-3.403c0.169-1.36,3.572-6.975,2.041-9.526c-1.532-2.553,1.529-4.766,2.722-5.275
							c1.19-0.511,7.826-2.892,7.826-4.084c0-1.19-0.511-3.401,0.169-4.763c0.683-1.362-0.339-6.295-0.85-7.998
							c-0.51-1.701-1.02-7.146-1.02-7.146s1.02-1.36,5.103-3.742c4.084-2.383,3.913-4.594,5.105-5.615
							c1.19-1.021,7.316-3.403,8.506-3.914c1.192-0.511,5.955-5.783,5.446-9.016c-0.511-3.233-2.723-9.697-2.212-11.23
							c0.51-1.531-0.171-5.445,0-7.145c0.17-1.702-4.084-4.084-3.914-4.766c0.169-0.68-0.171-3.911,0.169-5.273
							c0.342-1.362,1.362-3.742,1.532-4.764c0.171-1.021-0.17-1.703-1.532-3.573c-1.359-1.872-2.211-6.124,0.172-9.527
							c2.381-3.404,6.123-3.574,5.443-6.636c-0.68-3.063,0.342-5.446,2.383-5.446c2.042,0,2.211,0,3.403-1.021
							c1.19-1.021,5.274-8.336,5.783-8.505c0.511-0.171,6.977-7.315,10.04-8.677c3.063-1.362,11.908-18.545,14.802-24.67
							c2.891-6.125,3.912-10.208,4.084-12.08c0.169-1.871,0-6.124,0-6.124s-2.042-0.171-3.914,1.701
							c-1.872,1.872-5.104,1.021-8.336,1.532c-3.234,0.51-4.425,1.361-6.808,1.701c-2.38,0.341-2.041-1.36-4.083,0.171
							c-2.042,1.531-4.422,4.253-5.274,1.191c-0.851-3.063-3.911-3.574-4.594-4.424c-0.679-0.851,2.553,0.001,1.191-2.892
							c-1.36-2.893-5.785-4.765-6.295-7.316c-0.511-2.552-1.703-4.423-4.424-5.444c-2.723-1.021-5.444-5.786-5.785-6.466
							c-0.34-0.681-0.34-3.743-1.7-6.295c-1.361-2.552-3.233-3.913-3.233-3.913s-3.064-7.996-3.402-11.229
							c-0.342-3.233-1.7-5.444-3.403-6.125c-1.7-0.681-3.742-2.382-3.573-4.424c0.169-2.042-0.171-3.573-0.852-4.934
							c-0.68-1.361-3.061-4.594-4.252-7.656c-1.191-3.063-0.85-4.423-2.553-5.955c-1.7-1.531-2.724-3.233-3.403-4.764
							c-0.68-1.532-1.36-2.552-2.38-3.063c-1.022-0.511-4.084-1.701-4.595-4.423c-0.511-2.723-2.552-4.765-4.935-3.403
							c-2.383,1.362-3.231,2.893-6.295,1.362c-3.063-1.532-3.744-2.212-6.124-2.042c-2.383,0.17-3.745,1.531-4.595,0.51
							C280.639,85.256,280.979,83.386,277.918,84.066z"/>
						<path style="fill:#949844;" d="M359.755,179.744c-0.658,0.483-1.282,0.83-1.813,0.817
							c-11.107,11.819-26.543,10.659-45.01,9.936c-13.183-0.517-35.783,7.533-64.291-4.524c-11.566-4.892-33.641,0.757-48.506,0.7
							c-14.863-0.057-25.973,1.186-42.487-2.7c-23.14-5.444-26.563,0.476-26.563,0.476c1.7,3.063-2.211,4.764,0.681,7.146
							c2.892,2.381,5.614,5.613,9.697,7.826c4.083,2.211,7.145,5.104,9.188,7.146c2.042,2.041,5.614,0.169,7.656-0.852
							c2.041-1.021,11.232-2.211,14.123-0.511c2.892,1.702,3.913,0.681,5.955,0.171c2.042-0.511,5.614-3.064,7.315-2.382
							c1.703,0.68,2.893,1.7,4.765-0.681c1.87-2.382,7.316-2.554,9.698-2.382c2.381,0.169,5.445,2.721,6.125,5.104
							c0.681,2.382,3.231,3.912,5.273,3.573c2.043-0.341,4.935-1.703,6.295-1.021c1.362,0.68,2.552,2.893,4.084,3.742
							c1.53,0.852,2.041,2.383,1.53,3.915c-0.511,1.531-2.891,6.465-2.041,8.166c0.852,1.701,0,2.042-1.021,3.573
							c-1.021,1.532-3.742,2.042-1.87,5.104c1.87,3.063,6.125,9.527,9.188,12.589c3.063,3.063,4.081,8.167,4.764,11.06
							c0.68,2.894,3.742,4.936,4.253,6.977c0.511,2.042-2.383,3.403-1.7,6.636c0.679,3.232,2.551,7.825,1.872,10.208
							c-0.683,2.381-2.383,2.553-2.894,3.064c-0.511,0.509-1.7,3.572-1.7,5.442c0,1.872-0.342,5.955-1.532,7.656
							c-1.192,1.703-3.403,3.573-2.723,7.656s1.02,6.977,3.572,8.849c2.552,1.87,3.573,6.636,4.594,9.697
							c1.021,3.064,2.724,3.064,3.233,5.785c0.511,2.721,0.853,7.486,1.532,9.697c0.679,2.212,2.042,4.255,1.359,7.997
							c-0.681,3.743,2.722,9.868,5.445,11.399c2.721,1.531,1.873,4.424,3.232,6.636c1.363,2.211,2.893,3.062,2.553,6.125
							c-0.339,3.062-2.553,2.552-2.042,4.424c0.511,1.87,1.872,2.722,1.872,4.253c0,1.532,1.872,1.362,3.403,2.894
							c1.532,1.531,4.253,1.7,6.125,0.511c1.871-1.193,4.593-0.342,5.274-0.342c0.68,0,1.021-2.383,2.383-2.383
							c1.359,0,2.55-1.19,6.294-0.339c3.742,0.85,6.125-0.341,6.977-0.682c0.85-0.339,3.573,1.192,5.953-0.68
							c2.383-1.872,6.125-8.847,8.508-10.209c2.383-1.361,6.297-8.847,6.976-10.208c0.681-1.361,4.425-2.042,4.595-3.403
							c0.169-1.36,3.572-6.975,2.041-9.526c-1.532-2.553,1.529-4.766,2.722-5.275c1.19-0.511,7.826-2.892,7.826-4.084
							c0-1.19-0.511-3.401,0.169-4.763c0.683-1.362-0.339-6.295-0.85-7.998c-0.51-1.701-1.02-7.146-1.02-7.146
							s1.02-1.36,5.103-3.742c4.084-2.383,3.913-4.594,5.105-5.615c1.19-1.021,7.316-3.403,8.506-3.914
							c1.192-0.511,5.955-5.783,5.446-9.016c-0.511-3.233-2.723-9.697-2.212-11.23c0.51-1.531-0.171-5.445,0-7.145
							c0.17-1.702-4.084-4.084-3.914-4.766c0.169-0.68-0.171-3.911,0.169-5.273c0.342-1.362,1.362-3.742,1.532-4.764
							c0.171-1.021-0.17-1.703-1.532-3.573c-1.359-1.872-2.211-6.124,0.172-9.527c2.381-3.404,6.123-3.574,5.443-6.636
							c-0.68-3.063,0.342-5.446,2.383-5.446c2.042,0,2.211,0,3.403-1.021c1.19-1.021,5.274-8.336,5.783-8.505
							c0.511-0.171,6.977-7.315,10.04-8.677c3.063-1.362,11.908-18.545,14.802-24.67c2.891-6.125,3.912-10.208,4.084-12.08
							c0.169-1.871,0-6.124,0-6.124s-2.042-0.171-3.914,1.701c-1.872,1.872-5.104,1.021-8.336,1.532
							c-3.234,0.51-4.425,1.361-6.808,1.701c-0.835,0.12-1.331-0.012-1.719-0.168c-1.948-0.944-3.188,1.421-4.567,2.095
							C359.76,179.742,359.757,179.743,359.755,179.744z"/>
					</g>
					<g>
						<path style="fill:#5B3832;" d="M131.767,191.595c2.892,2.381,5.614,5.613,9.697,7.826c4.083,2.211,7.145,5.104,9.188,7.146
							c2.042,2.041,5.614,0.169,7.656-0.852c2.041-1.021,11.232-2.211,14.123-0.511c2.892,1.702,3.913,0.681,5.955,0.171
							c2.042-0.511,5.614-3.064,7.315-2.382c1.703,0.68,2.893,1.7,4.765-0.681c1.87-2.382,7.316-2.554,9.698-2.382
							c2.381,0.169,5.445,2.721,6.125,5.104c0.681,2.382,3.231,3.912,5.273,3.573c2.043-0.341,4.935-1.703,6.295-1.021
							c1.362,0.68,2.552,2.893,4.084,3.742c1.53,0.852,2.041,2.383,1.53,3.915c-0.196,0.593-0.676,1.7-1.14,2.931
							c9.992-1.025,19.811-1.605,26.31,1.144c28.508,12.057,51.108,4.007,64.291,4.523c18.467,0.724,33.902,1.884,45.01-9.935
							c0.53,0.014,1.154-0.334,1.813-0.816c0.002-0.001,0.005-0.002,0.008-0.003c1.38-0.674,2.619-3.04,4.567-2.096
							c0.388,0.155,0.884,0.287,1.719,0.168c1.843-0.263,2.98-0.83,4.893-1.31c3.711-5.948,8.181-14.743,10.081-18.767
							c2.891-6.125,3.912-10.208,4.084-12.08c0.169-1.871,0-6.124,0-6.124s-2.042-0.171-3.914,1.701
							c-1.872,1.872-5.104,1.021-8.336,1.532c-3.234,0.51-4.425,1.361-6.808,1.701c-0.835,0.12-1.331-0.012-1.719-0.168
							c-1.948-0.944-3.188,1.421-4.567,2.095c-0.003,0.002-0.006,0.003-0.008,0.004c-0.658,0.483-1.282,0.83-1.813,0.817
							c-11.107,11.819-26.543,10.659-45.01,9.936c-13.183-0.517-35.783,7.533-64.291-4.524c-11.566-4.892-33.641,0.757-48.506,0.7
							c-14.863-0.057-25.973,1.186-42.487-2.7c-23.14-5.444-26.563,0.476-26.563,0.476
							C132.786,187.511,128.875,189.212,131.767,191.595z"/>
					</g>
				</g>
				<g>
					<path style="fill:#E2E3E4;" d="M122.965,174.805c-0.974,0.085-1.91,0.299-2.811,0.65c0.226,0.183,0.467,0.294,0.725,0.316
						C122.168,175.878,122.622,175.169,122.965,174.805z"/>
				</g>
				<g>
					<path style="fill:#5B3832;" d="M286.515,174.356c0.77,0.243,1.494,0.478,2.295,0.588c-0.035,1.42,0.009,2.894-0.066,4.361
						c-0.192,3.881,1.41,7.665,2.378,8.152c0.971,0.484,1.553,0.532,1.845-0.147c0.29-0.679-0.145-1.212-0.826-1.649
						c-0.68-0.436-0.871-0.922-0.824-3.785c0.051-2.861,2.184-8.004,3.589-8.198c1.41-0.194,3.775-0.355,3.845,0.425
						c0.29,3.123,1.799,2.54,1.799,2.54s-0.013,0.624-1.272,3.293c-1.266,2.67-2.526,9.898-2.526,10.529
						c0,0.63-0.582,1.262,0.291,1.357c0.874,0.097,3.689-0.193,3.884-0.678c0.191-0.485,0-1.115,0.049-1.893
						c0.037-0.604,3.044-6.03,4.374-8.404c0.782,2.495,2.265,6.506,2.448,7.09c0.261,0.823,0.371,2.46,0.74,3.272
						c0.37,0.813,1.824,0.624,2.55,0.592c1.114-0.048,1.609-0.431,1.336-0.948c-0.271-0.517-1.641-6.692-1.723-7.448
						c-0.028-0.282,0.044-1.047,0.148-1.896c5.788,1.091,12.154-0.31,12.154-0.31s0.289,0.484,0.289,1.503
						c0,1.019,0.342,6.744,0.244,7.763c-0.099,1.019-0.438,1.699,0.727,1.651c1.163-0.051,3.202,0.144,3.639-0.147
						c0.44-0.291,0.727-4.173,0.535-6.017c-0.007-0.034,0-0.077-0.002-0.113c0.906,1.195,1.985,2.503,2.28,2.88
						c0.535,0.679,1.261,2.426,1.895,3.056c0.628,0.63,2.328-0.776,2.764-1.359c0.439-0.582,0.873-0.921,0.439-1.31
						c-0.439-0.386-3.933-4.948-4.273-5.627c-0.337-0.68-1.096-4.927-1.096-4.927l-0.096,0.289c0.399-1.195,0.78-2.388,1.049-3.465
						c0.289-1.159,0.383-2.174,0.333-3.12c0.244,0.757,0.435,1.702,0.588,2.583c0.193,1.102,1.746,5.923,1.746,5.923
						s-0.24,0.776,0.195,2.28c0.435,1.504,2.719,2.087,2.719,2.087s-0.924-1.504-1.069-2.426c-0.147-0.921-1.117-1.602-1.357-2.086
						c-0.244-0.485-1.598-5.691-1.794-6.744c-0.219-1.141-1.347-3.536-1.347-3.536l-0.008,0.02c-0.392-1.279-1.1-2.474-2.094-3.761
						c-2.136-2.767-7.469-4.416-9.752-3.737c-2.279,0.68-6.208,0.826-7.908,0.534c-1.697-0.291-5.289-2.473-7.714-2.571
						c-2.426-0.097-3.784,0.971-4.705,0.922c-0.923-0.049-2.522-0.098-2.522-0.098c-2.953-0.053-3.929,4.125-6.162,6.986
						c-1.105,1.418-1.508,3.098-1.657,4.903c-1.139,0.169-2.347,0.174-3.292-0.246C285.592,173.288,284.814,173.822,286.515,174.356
						z M330.212,179.234L330.212,179.234c0.006-0.02,0.012-0.042,0.021-0.064L330.212,179.234z"/>
					<path style="fill:#5B3832;" d="M275.464,179.83c-0.489-1.076-1.616-5.335-2.692-7.341c-0.648-1.21-1.776-2.097-2.57-2.613
						c-0.113-0.528-0.263-1.026-0.462-1.45c-0.884-1.86-4.897-3.084-6.316-3.182c-1.419-0.097-4.453-1.615-5.188-2.985
						c-0.733-1.37-2.493-2.153-4.601-3.181c-2.102-1.027-7.438-6.167-8.908-8.174c-1.467-2.006-4.159-3.768-4.99-3.964
						c-0.831-0.196-2.446-0.93-2.446-0.93s0,0,0-0.783c0-0.783-1.519-1.468-1.519-1.468c-0.439,1.566,0.489,2.202,0.489,2.202
						s-0.243,0.489-1.222,1.224c-0.979,0.734-1.078,1.908-1.127,2.642c-0.047,0.734-0.637,1.176-1.273,2.594
						c-0.634,1.419-0.98,1.615-0.245,2.056c0.735,0.442,2.253,0.294,2.645-0.196c0.391-0.489,0.979-1.419,2.006-1.468
						c1.026-0.049,2.301-1.762,2.301-1.762c2.104,1.468,6.02,6.167,7.489,8.809c1.467,2.643,4.111,7.635,4.06,10.034
						c-0.048,2.398-1.37,9.936-1.37,12.921c0,2.986-0.686,6.558-0.882,7.586c-0.194,1.029-0.391,2.692-0.391,2.692h1.663
						c0,0,0.248-3.426,0.346-3.768c0.097-0.342,0.781-3.67,1.124-5.874c0.098-0.634,0.454-1.623,0.909-2.708
						c0.505,1.931,1.505,6.101,1.684,7.359c0.196,1.37,0.98,4.893,0.98,4.893h1.566c0,0-0.685-2.447-0.833-3.329
						c-0.145-0.881-0.684-5.09-0.733-6.363c-0.051-1.267,0.022-8.124,0.022-8.185c0.108-0.209,0.173-0.33,0.173-0.33
						c4.992,2.202,7.881-0.295,7.881-0.295s1.469,0.93,2.447,2.448c0.528,0.822,1.704,2.531,2.709,4.052
						c0.066,0.504,0.09,0.945,0.032,1.234c-0.248,1.223-2.449,7.683-2.644,8.564c-0.198,0.881-0.442,1.859-0.442,1.859h1.911
						c0,0,0.587-1.957,0.734-2.691c0.111-0.567,1.332-3.75,2.219-5.785c0.373,1.246,1.248,4.386,1.204,5.687
						c-0.047,1.468-0.146,2.693-0.146,2.693h1.86c0.049-1.225-0.293-3.427-0.587-5.189c-0.295-1.763-0.295-6.656-0.833-7.979
						c-0.538-1.321-1.517-3.132-1.224-4.502c0.18-0.828,0.263-2.333,0.111-3.805c0.463,0.315,1.024,0.779,1.65,1.456
						c1.695,1.836,2.938,8.026,2.938,8.026s-0.028-2.176,0.098,0.246c0.124,2.42,1.714,4.357,1.714,4.357
						C277.569,183.011,275.953,180.907,275.464,179.83z"/>
					<path style="fill:#5B3832;" d="M180.486,163.523c-0.356-0.797-0.688-1.045-0.713-1.459c-0.029-0.413-0.084-1.073-0.634-1.486
						c-0.553-0.413-0.688-0.688-0.688-0.688s0.521-0.357,0.275-1.24c0,0-0.854,0.386-0.854,0.827c0,0.441,0,0.441,0,0.441
						s-0.909,0.413-1.376,0.523c-0.47,0.109-1.983,1.1-2.809,2.229s-3.827,4.02-5.011,4.598c-1.184,0.578-2.176,1.019-2.588,1.789
						c-0.413,0.772-2.12,1.625-2.917,1.68c-0.8,0.055-3.058,0.744-3.554,1.79c-0.113,0.238-0.194,0.519-0.256,0.815
						c-0.449,0.29-1.086,0.787-1.45,1.47c-0.606,1.128-1.238,3.523-1.513,4.129c-0.275,0.607-1.185,1.79-0.744,3.001
						c0,0,0.893-1.089,0.965-2.45c0.067-1.362,0.054-0.138,0.054-0.138s0.698-3.481,1.651-4.515
						c0.352-0.382,0.669-0.642,0.929-0.819c-0.086,0.828-0.038,1.675,0.061,2.141c0.165,0.771-0.385,1.79-0.686,2.532
						c-0.305,0.745-0.305,3.497-0.471,4.488c-0.163,0.992-0.357,2.23-0.329,2.919h1.045c0,0-0.056-0.688-0.082-1.515
						c-0.023-0.731,0.469-2.499,0.678-3.199c0.501,1.144,1.186,2.935,1.248,3.254c0.084,0.413,0.415,1.515,0.415,1.515h1.073
						c0,0-0.138-0.55-0.248-1.046c-0.111-0.496-1.349-4.13-1.486-4.818c-0.032-0.162-0.02-0.411,0.018-0.694
						c0.564-0.855,1.226-1.816,1.522-2.279c0.551-0.853,1.376-1.376,1.376-1.376s1.625,1.404,4.433,0.165
						c0,0,0.038,0.069,0.098,0.188c0,0.024,0.04,3.889,0.015,4.603c-0.029,0.715-0.329,3.083-0.413,3.578
						c-0.082,0.496-0.469,1.873-0.469,1.873h0.882c0,0,0.44-1.982,0.55-2.753c0.102-0.707,0.664-3.051,0.947-4.138
						c0.255,0.609,0.456,1.166,0.513,1.522c0.192,1.239,0.577,3.111,0.634,3.304c0.054,0.192,0.191,2.12,0.191,2.12h0.937
						c0,0-0.111-0.936-0.222-1.514c-0.109-0.579-0.494-2.589-0.494-4.267c0-1.68-0.743-5.92-0.771-7.268
						c-0.026-1.349,1.46-4.158,2.285-5.645c0.828-1.486,3.029-4.128,4.213-4.955c0,0,0.716,0.964,1.294,0.992
						c0.576,0.027,0.907,0.55,1.129,0.826c0.219,0.275,1.072,0.358,1.484,0.11C181.039,164.432,180.846,164.322,180.486,163.523z"/>
					<g>
						<path style="fill:#5B3832;" d="M170.891,132.572c-0.172-0.003-0.287,0.008-0.311,0.039
							C170.542,132.66,170.674,132.632,170.891,132.572z"/>
						<path style="fill:#5B3832;" d="M171.893,128.65c-0.003,0.001-0.005,0.002-0.007,0.002
							C171.796,128.687,171.814,128.681,171.893,128.65z"/>
						<path style="fill:#5B3832;" d="M261.54,104.472c-2.873-0.396-6.044,0.1-7.927-1.09c-1.884-1.188-1.884-1.882-5.055-2.577
							c-3.17-0.693-5.549-1.089-8.621-1.485c-3.073-0.397-6.442-1.19-8.027-1.884c-1.586-0.694-4.559-1.685-7.234-1.883
							c-2.675-0.197-6.936-0.495-8.721-0.693c-1.782-0.198-6.439-0.297-8.224,0c-1.785,0.297-2.112,0.025-4.758,0.396
							c-0.985,0.139-2.278,0.496-3.468,0.396c-1.19-0.099-4.954-0.396-6.738-0.099c-1.785,0.298-3.071-0.793-5.252-0.594
							c-2.182,0.198-8.127,0.693-8.919,1.486c-0.793,0.793-1.487,1.289-3.569,1.387c-2.081,0.1-7.232,0.199-9.81,0.297
							c-2.575,0.1-6.342,1.586-5.151,2.577c1.189,0.992,3.764,1.487,0.395,2.18c-3.37,0.694-5.053,0.694-6.242,1.487
							c-1.191,0.792,0.594,1.288-0.992,1.486c-1.587,0.198-5.054,0.891-5.945,1.784c-0.893,0.892-0.297,1.685,1.982,1.784
							c2.279,0.098,7.53-0.496,7.928-0.099c0.396,0.396,3.963,0.693,6.441,0.396c2.235-0.269,6.645-0.698,9.38-0.925
							c0.3,0.24,0.765,0.599,0.951,0.673c0.282,0.114,1.24,0.614,1.24,0.614l-0.633,0.004l-0.524,0.067c0,0,1.231,0.204,1.428,0.291
							c0.194,0.089,1.11,1.27,1.31,1.454c0.197,0.185,1.021,1.464,1.021,1.464s-0.54-0.094-0.78-0.132
							c-0.241-0.039-1.395-0.407-1.888-0.552c-0.494-0.145-3.228-1.037-3.228-1.037s-0.473-0.108-0.619-0.15
							c-0.143-0.042-1.314-0.352-1.509-0.44c-0.193-0.088-0.694-0.645-0.872-0.791c-0.177-0.146-1.046-0.621-1.046-0.621l1.35,1.308
							c0,0-0.349,0.12-0.648,0.063c-0.302-0.055-1.494,0.038-1.494,0.038l2.309,0.296c0,0,0.584,0.266,0.737,0.279
							c0.154,0.013,1.496,0.279,1.727,0.347c0.233,0.066,2.243,0.753,2.243,0.753l2.002,0.896c0,0-0.727,0.228-0.936,0.294
							c-0.209,0.065-1.361,0.233-1.361,0.233s2.383-0.061,2.526-0.114c0.14-0.053,1.427,0.071,1.78,0.047
							c0.253-0.016,2.138,1.719,3.172,2.69c-1.206,0.286-2.576,0.541-3.882,0.71c-2.572,0.33-4.562,0.663-7.213,1.244
							c-2.656,0.58-2.656,1.161-4.23,2.154c-1.574,0.996-4.229,0.581-6.635,0.914c-2.403,0.331-1.529,2.447,0.333,2.487
							c0.684,0.015,2.57-0.248,2.985,0.415c0.414,0.663,3.149-0.082,4.725,0c1.577,0.083,4.23,0.083,5.474,0.083
							c1.243,0,3.318,0.58,3.898,1.409c0.241,0.347,0.88,0.679,1.654,0.966c0.371,0.637,0.663,1.16,0.663,1.16
							s-1.56-0.296-2.613-0.38c-1.052-0.085-1.893-0.294-1.893-0.294s-2.235,0.853-2.645,1.008c0.561-0.21,3.026-0.419,3.319-0.461
							c0.295-0.041,2.904,0.59,3.325,0.548c0.421-0.042,0.674,1.01,0.802,1.263c0.125,0.254,0.674,2.358,0.251,2.063
							c-0.423-0.295-1.516-0.379-2.063-0.462c-0.546-0.085-0.463-0.085-1.219-0.253c-0.757-0.169-1.517,0.042-1.517,0.042
							s1.22,0.211,1.598,0.294c0.38,0.084,0.634,0.337,0.338,0.463c-0.293,0.127-0.758,0.633-1.053,0.589
							c-0.295-0.042-2.105-0.42-2.779-0.546c-0.473-0.09-1.488,0.238-2.004,0.382c0.769,0.011,2.689,0.29,2.931,0.29
							c0.295,0,1.73,0.421,2.064,0.421c0.337,0,1.433-0.504,1.642-0.8c0.211-0.294,1.854,0.252,1.896,0.421
							c0.029,0.123,0.422,1.062,0.629,1.555c-0.008,0-0.011,0.001-0.02,0.001c-0.356,0.042-0.885,0.127-1.421,0.243
							c-0.668,0.015-1.506,0.222-1.506,0.222l0.484,0.042c-0.425,0.133-0.786,0.285-0.961,0.451
							c-0.511,0.479-0.169,0.905,1.135,0.958c0.827,0.034,2.335-0.082,3.387-0.118c0.17,0.285,0.355,0.604,0.545,0.941
							c0.253,0.453,0.973,1.169,1.783,1.882c-0.287,0.012-0.543,0.031-0.725,0.061c-0.789,0.123-0.936,0.009-2.104,0.164
							c-0.436,0.058-1.009,0.205-1.535,0.164c-0.526-0.042-2.191-0.164-2.98-0.042c-0.788,0.124-1.36-0.328-2.323-0.246
							c-0.965,0.083-3.595,0.287-3.945,0.616c-0.134,0.124-0.259,0.231-0.415,0.317c-0.062-0.012-0.058-0.01-0.006,0.004
							c-0.255,0.141-0.589,0.229-1.156,0.254c-0.922,0.041-3.201,0.082-4.339,0.123c-1.141,0.041-2.808,0.657-2.28,1.068
							c0.525,0.411,1.666,0.617,0.175,0.905c-1.491,0.287-2.235,0.287-2.762,0.616c-0.526,0.328,0.264,0.534-0.438,0.616
							c-0.7,0.083-2.238,0.369-2.631,0.74c-0.393,0.37-0.132,0.699,0.877,0.74c1.008,0.042,3.33-0.205,3.508-0.041
							c0.173,0.164,1.752,0.288,2.848,0.164c1.096-0.123,3.375-0.329,4.516-0.411c1.14-0.082,2.98-0.452,4.033-0.082
							c0.844,0.297,2.792,0.144,3.639,0.093c1.105,0.446,2.804,1.162,2.963,1.321c0.199,0.198,1.256,1.518,1.784,2.312
							c0.528,0.793,2.379,0.726,4.029,0.858c1.651,0.133,1.388,0.661,1.717,1.652c0.332,0.991,0.463,2.378,0.794,2.709
							c0.186,0.186,1.594,0.681,2.97,1.208c0.113,0.584,0.253,1.301,0.298,1.56c0.084,0.463,0.167,1.811,0.464,2.273
							c0.295,0.463,0.968,1.642,0.968,1.642s-0.546-0.21-1.515-0.126c-0.969,0.084-2.023,0.084-2.233-0.042
							c-0.209-0.126-1.135-1.222-1.347-1.979c-0.209-0.758-0.047,0.007-0.047,0.007s0.211,0.751,0.528,1.149
							c0.321,0.396,0.488,0.903,0.488,0.903s-0.555,0.123-1.005-0.042c-0.452-0.167-1.655-0.773-1.7-0.784
							c-0.044-0.011,0.739,0.485,1.102,0.662c0.365,0.177,1.161,0.519,1.67,0.519c0.506,0,3.386,0.087,3.607,0.11
							c0.219,0.022,0.927,0.639,1.335,0.992c0.407,0.353,1.843,2.097,1.843,2.097s-0.849-0.121-1.61,0.122
							c-0.762,0.243-1.744,0.639-2.176,0.639c-0.429,0-2.658-0.132-2.857-0.087c-0.197,0.043-1.202,0.429-1.202,0.429
							s0.971-0.264,1.347-0.286c0.374-0.021,2.272,0.121,2.272,0.121l-1.137,0.729c0,0,1.015-0.607,1.447-0.685
							c0.43-0.078,1.276-0.275,1.534-0.375c0.253-0.1,0.891-0.321,1.431-0.321c0.543,0,1.193,0.079,1.193,0.079
							s2.175,5.208,2.416,5.637c0.243,0.431,0.751,2.361,0.806,2.692c0.049,0.298,1.981,5.128,2.358,6.073l0.167,7.998h3.103h2.499
							h2.852c0,0-1.452-8.537-1.123-11.443c0.33-2.907,1.059-3.436,1.059-3.436s4.096-3.567,5.018-5.417
							c0.929-1.85,1.456-2.841,1.456-2.841s0.991-0.396,2.907-0.594c1.916-0.198,4.791-0.704,5.093-0.79
							c0.305-0.086,2.01,0.151,2.01,0.151s-1.253-0.39-1.341-0.39c-0.085,0-0.127-0.064,0.304-0.301
							c0.433-0.237,1.103-0.822,1.275-1.06c0.174-0.238,0.496-1.274,0.496-1.274s-0.496,1.015-1.123,1.469
							c-0.627,0.454-1.773,1.124-2.312,1.275c-0.54,0.151-5.768,0.345-6.331,0.367c-0.563,0.021-0.563,0.021-0.563,0.021
							s0.477-1.124,1.449-1.533c0.973-0.412,4.579-2.399,4.645-2.399c0.064,0,1.922-0.475,2.634-0.994
							c0.713-0.519,2.659-2.139,2.963-2.29c0.3-0.152,1.444-0.368,1.684-0.389c0.238-0.021-0.801-0.065-1.06,0.021
							c-0.258,0.086-0.822,0.043-2.074,1.124c-1.252,1.08-3.866,2.009-3.866,2.009s2.01-3.068,2.029-3.824
							c0.022-0.756-0.063-3.501,0.022-3.824c0.088-0.325,1.189-1.772,1.189-1.772s-0.689,0.475-0.951,0.821
							c-0.26,0.346-0.301,0.454-0.301,0.454s-0.003-1.621,0.432-2.183c0.432-0.562,0.82-1.599,0.82-1.599s-0.865,1.145-1.145,1.643
							c-0.28,0.497-0.454,1.879-0.433,2.808c0.023,0.93,0.064,2.982-0.107,3.631c-0.174,0.647-1.556,3.435-2.184,3.889
							c-0.626,0.453-4.731,2.463-5.099,2.614c-0.366,0.15-1.036,0.432-1.643,1.448c-0.604,1.014-2.138,3.781-3.089,5.055
							c-0.948,1.275-2.938,3.133-2.938,3.133s0.735-6.352,0.993-7.973c0.262-1.621,0.606-4.818,0.931-6.071
							c0.323-1.254,0.668-5.509,1.102-6.525c0.431-1.016,4.06-4.494,4.536-5.639c0.475-1.145,1.362-2.938,1.426-3.003
							c0.042-0.042,2.656-1.888,4.519-3.201c1.017,0.08,2.418,0.056,3.543-0.017c0.029,0.029,0.056,0.054,0.083,0.085
							c1.018,1.101,1.189,1.36,2.248,1.707c1.058,0.345,5.12,1.663,5.726,2.29c0,0-0.712-0.647-1.729-1.08
							c-1.015-0.432-2.614-1.145-2.702-1.124c-0.086,0.021,1.083-0.28,1.558-0.39c0.475-0.107,1.361-0.54,1.361-0.54
							s-1.212,0.324-1.836,0.433c-0.628,0.107-1.795,0.107-2.184,0.021c-0.316-0.07-1.277-0.9-1.916-1.45
							c0.238-0.022,0.457-0.044,0.632-0.069c1.137-0.16,3.067-0.638,3.464-1.171c0.397-0.532,1.815-0.904,2.668-0.904
							c0.852,0,2.668,0,3.744-0.054c1.081-0.052,2.788,0.249,3.235,0c0.862-0.477,0.705-1.649-2.271-2.446
							c-1.21-0.325-1.078-1.012-2.893-1.384c-1.816-0.372-3.18-0.585-4.938-0.799c-0.644-0.077-1.308-0.184-1.94-0.306
							c1.785-1.031,3.375-1.949,3.375-1.949h1.176c0,0,2.021,0.631,2.612,0.926c0.59,0.295,5.263,1.474,5.263,1.474
							s-3.79-1.389-4.336-1.81c-0.548-0.422-3.328-1.264-3.328-1.264s0.972,0,2.063-0.084c1.095-0.085,3.79-0.085,4.589-0.21
							c0.799-0.127,8.129-1.642,8.129-1.642s-7.539,1.263-9.053,1.221c-1.518-0.042-6.4-0.126-6.4-0.126s0.63-0.337,0.8-0.758
							c0.044-0.11,0.454-0.487,1.031-0.98c2.297,0.194,5.77,0.535,7.564,0.75c2.071,0.249,5.058,0,5.39-0.332
							c0.332-0.331,4.726,0.168,6.631,0.083c1.91-0.083,2.407-0.747,1.661-1.492c-0.745-0.746-3.648-1.327-4.977-1.493
							c-1.325-0.166,0.169-0.582-0.826-1.245c-0.995-0.663-2.405-0.663-5.226-1.243c-2.817-0.58-0.663-0.994,0.332-1.824
							c0.995-0.83-2.155-2.073-4.313-2.155c-2.155-0.083-6.466-0.166-8.209-0.25c-1.676-0.079-2.276-0.47-2.914-1.092
							c0.496-0.091,1-0.185,1.094-0.163c0.169,0.041,2.895-0.233,2.895-0.233s-1.338-0.025-1.585-0.07
							c-0.245-0.044-1.11-0.201-1.11-0.201l2.155-1.311c0,0,2.194-1.072,2.45-1.183c0.066-0.029,0.215-0.083,0.402-0.149
							c2.007-0.348,4.994-1.188,5.643-2.114c0.693-0.991,3.172-1.684,4.658-1.684c1.486,0,4.657,0,6.54-0.099
							c1.884-0.1,5.153,0.793,5.648,0c0.497-0.794,2.45-0.101,3.567-0.496C261.915,107.173,264.414,104.869,261.54,104.472z
							 M228.454,112.249c-0.061,0.222-0.135,0.454-0.188,0.631c-0.096,0.302-0.549,1.225-0.806,1.735
							c-0.107-0.023-0.22-0.047-0.333-0.069c-0.103-0.231-0.255-0.518-0.467-0.76c-0.435-0.497-1.059-1.11-1.2-1.436
							c-0.025-0.059-0.067-0.164-0.118-0.296c0.145,0.016,0.294,0.035,0.423,0.049C226.52,112.193,227.46,112.238,228.454,112.249z
							 M223.885,126.071c-0.016,0.214-0.816,1.479-0.919,1.727c-0.08,0.188-0.622,0.924-0.886,1.274
							c-0.06-0.011-0.119-0.019-0.18-0.028c-0.032-0.177-0.077-0.422-0.104-0.563c-0.045-0.24-0.094-1.45-0.128-1.962
							c-0.01-0.155-0.025-0.527-0.042-0.968c0.765,0.008,1.522-0.013,2.188-0.09C223.857,125.732,223.891,125.985,223.885,126.071z
							 M204.619,154.919c-0.103-0.708-0.194-1.238-0.258-1.426c-0.266-0.793,0.065-3.633,0.331-4.427
							c0.13-0.389,0.307-1.063,0.452-1.648c0.418,0.448,0.778,0.845,1.001,1.12c0.312,0.382,0.63,0.721,0.92,1.074
							c-0.685,1.658-1.437,3.366-2.107,4.608C204.842,154.431,204.727,154.666,204.619,154.919z M203.332,158.707
							c-0.349-0.453-0.722-1.079-0.953-1.514c-0.528-0.991-1.65-2.577-1.716-3.04c-0.031-0.193-0.658-0.825-1.378-1.496
							c0.389-0.523,0.902-1.214,1.438-1.927c0.519,0.87,1.057,1.737,1.459,2.167c0.603,0.646,1.314,2.411,1.721,3.928
							C203.705,157.431,203.514,158.067,203.332,158.707z M194.41,154.252c0-0.126,0.023-0.476,0.056-0.872
							c0.662,0.485,1.383,0.987,1.984,1.346c0.141,0.72,0.234,1.21,0.234,1.21s0.036,0.152,0.098,0.412
							c-0.721-0.358-1.528-0.726-2.337-1.07C194.426,154.781,194.41,154.365,194.41,154.252z M194.537,150.715l0.365-2.311
							c0.143,0.264,0.253,0.483,0.308,0.627c0.188,0.484,0.737,3.166,1.11,5.041c-0.656-0.355-1.316-0.749-1.816-1.133
							c0.045-0.526,0.097-1.027,0.115-1.129C194.664,151.599,194.537,150.715,194.537,150.715z M188.754,137.126
							c-0.034-0.211-0.194-0.616-0.283-0.836c0.653-0.061,1.326-0.12,1.938-0.172c0.596,1.531,1.131,2.977,1.336,3.556
							c-0.484-0.117-0.999-0.209-1.495-0.244c-0.397-0.028-0.876-0.06-1.363-0.093C188.819,138.318,188.779,137.28,188.754,137.126z
							 M189.298,128.702c-0.072-0.147-0.195-0.313-0.353-0.491c0.104-0.009,0.206-0.02,0.303-0.031
							c0.812-0.097,2.054-0.233,3.445-0.388c0.408,0.695,0.88,1.514,1.206,2.086c-0.314,0.149-0.729,0.243-1.38,0.273
							c-0.558,0.025-1.509,0.05-2.512,0.076C189.717,129.587,189.459,129.024,189.298,128.702z M219.689,111.42
							c-0.163,0.238-0.314,0.423-0.379,0.467c-0.142,0.101-0.899,0.149-1.597,0.134c-0.7-0.015-1.082,0.161-1.082,0.161
							s0.318-0.65,0.528-1.051C217.995,111.23,218.849,111.326,219.689,111.42z M225.182,112.073l-0.07-0.046
							c0.018,0.001,0.037,0.004,0.054,0.005C225.173,112.049,225.182,112.073,225.182,112.073z M224.951,112.008
							c0.126,0.114,0.238,0.225,0.297,0.313c0.202,0.301,0.631,0.88,0.789,1.039c0.159,0.16,0.537,0.572,0.715,0.981
							c0.021,0.047,0.042,0.097,0.059,0.146c-1.8-0.324-4.358-0.543-5.558-0.651c-0.342-0.031-0.648-0.015-0.946,0.013
							c0.53-0.791,1.071-1.584,1.489-2.193C222.995,111.789,224.082,111.908,224.951,112.008z M221.269,125.548l-0.157,2.188
							c0,0-0.465-0.606-0.595-0.779c-0.133-0.173-0.684-1.198-0.684-1.198s0.871,2.216,0.968,2.331
							c0.053,0.062,0.171,0.453,0.293,0.851c-0.046-0.003-0.094-0.011-0.14-0.013c-1.533-0.107-3.975-0.267-4.995-0.373
							c-0.119-0.012-0.261-0.023-0.417-0.034c0.196-0.795,0.422-1.718,0.658-2.69c0.639-0.236,1.091-0.44,1.238-0.469
							c0.233-0.046,1.987,0.142,3.83,0.185V125.548z M211.25,128.555c-1.023,0.16-1.212,0.013-2.726,0.213
							c-0.098,0.013-0.208,0.032-0.315,0.05c0.08-0.58,0.203-1.389,0.361-2.353c1.186,0,2.237,0.035,2.981,0.124
							c1.27,0.15,2.573-0.105,3.636-0.421c-0.314,1.168-0.536,1.977-0.567,2.064c-0.01,0.03-0.029,0.123-0.049,0.244
							C213.392,128.437,211.942,128.448,211.25,128.555z M207.418,136.724c0.051,0.732,0.193,2.941,0.067,3.712
							c-0.151,0.929-1.943,4.148-1.943,4.148s-0.044-1.599,0.129-2.031c0.174-0.433,0.931-4.159,0.919-4.825
							c0.072-0.319,0.145-0.646,0.218-0.977C206.995,136.74,207.201,136.731,207.418,136.724z M196.978,147.644
							c0.663,0.144,1.796,0.368,2.165,0.63c0.161,0.116,0.477,0.606,0.85,1.232c-0.919,0.963-1.725,1.691-1.725,1.691
							C197.953,150.571,197.322,148.703,196.978,147.644z M199.473,146.886c-0.162-0.485-0.227-1.416-0.354-2.262
							c0.104-0.01,0.201-0.017,0.295-0.017c0.655,0,2.059,0,2.892-0.042c0.039-0.001,0.083,0,0.125-0.001
							c0.146,0.156,0.311,0.331,0.489,0.516c-0.149,0.419-0.282,0.787-0.391,1.062c-0.314,0.794-1.12,1.814-1.948,2.731
							C200.106,148.099,199.627,147.354,199.473,146.886z M193.557,140.25c-0.339-1.288-0.754-2.991-1.099-4.303
							c1.024-0.111,2.289-0.292,3.363-0.249c0.008,0.033,0.017,0.07,0.017,0.09c0.037,0.364,0.421,2.244,0.622,3.672
							c-0.228-0.311-0.421-0.544-0.555-0.633c-0.595-0.397-1.784-1.718-1.784-1.718s1.453,2.048,2.115,2.973
							c0.104,0.146,0.219,0.345,0.343,0.571c0,0.029,0.002,0.063,0.002,0.089c0,0.058-0.003,0.124-0.008,0.191
							C195.403,140.766,194.213,140.498,193.557,140.25z M213.775,110.716c0.146,0.019,0.298,0.039,0.445,0.058l-0.118,1.665
							c0,0-0.465-0.606-0.598-0.78c-0.098-0.132-0.442-0.756-0.6-1.047C213.212,110.646,213.507,110.681,213.775,110.716z
							 M212.881,110.609c0.197,0.494,0.83,2.085,0.911,2.182c0.079,0.096,0.315,0.964,0.477,1.447
							c-1.247,0.033-2.488,0.133-3.049,0.179c-0.186,0.016-0.373,0.014-0.562,0.007c0.25-1.404,0.494-2.75,0.715-3.964
							C211.908,110.507,212.414,110.557,212.881,110.609z M207.519,128.929c-0.265,0.038-0.54,0.057-0.808,0.051
							c0.11-1.017,0.162-1.818,0.162-1.98c0-0.063,0.01-0.247,0.033-0.513c0.345-0.008,0.682-0.016,1.011-0.019
							c-0.187,1.077-0.333,1.943-0.385,2.381C207.531,128.873,207.523,128.904,207.519,128.929z M205.204,137.671
							c-0.032,0.405-0.791,2.922-1.536,5.198c-0.189-0.066-0.39-0.132-0.619-0.192c-0.018-0.005-0.027-0.011-0.046-0.017
							c-0.243-0.465-0.937-2.728-0.624-3.04c0.198-0.198,0.877-1.659,1.611-3.052c0.435,0.113,0.919,0.204,1.418,0.238
							C205.288,137.242,205.213,137.554,205.204,137.671z M198.34,127.937c0,0-0.467-0.283-0.678-0.407
							c-0.064-0.037-0.202-0.138-0.364-0.262c0.298-0.037,0.59-0.072,0.877-0.107C198.264,127.564,198.34,127.937,198.34,127.937z
							 M196.649,127.555c0,0-0.76-0.05-0.98-0.064c-0.027-0.002-0.072-0.01-0.128-0.019c0.31-0.035,0.616-0.071,0.921-0.107
							L196.649,127.555z M199.28,127.021c0.467-0.062,1.018-0.122,1.607-0.177c-0.263,0.241-0.802,0.563-1.206,0.844
							c-0.471,0.328-0.771,0.865-0.771,0.865s-0.197-0.841-0.31-1.445C198.833,127.079,199.061,127.049,199.28,127.021z
							 M199.486,128.139c0.236-0.31,0.642-0.578,0.812-0.679c0.151-0.091,0.55-0.416,0.8-0.636c0.548-0.051,1.131-0.097,1.738-0.14
							c0.07,0.678,0.182,1.434,0.282,2.198c-0.16,0.011-0.308,0.026-0.438,0.046c-1.023,0.16-1.761-0.426-3.012-0.319
							c-0.15,0.013-0.332,0.028-0.538,0.045C199.224,128.509,199.356,128.31,199.486,128.139z M200.397,138.43
							c-0.351-0.286-0.945-1.158-1.47-1.983c0.048-0.109,0.097-0.215,0.144-0.321c1.433,0.01,2.971-0.15,3.196-0.122
							c-0.155,0.54-0.299,0.999-0.417,1.303c-0.33,0.859-0.925,2.775-0.925,2.775S201.123,139.025,200.397,138.43z M197.917,136.068
							c-0.358,0.657-0.668,1.237-0.692,1.304c-0.027,0.086-0.204-0.675-0.359-1.523c0.064,0.017,0.135,0.028,0.194,0.049
							C197.289,135.978,197.586,136.031,197.917,136.068z M197.919,139.157c0.023-0.328,0.332-1.14,0.693-1.99
							c0.126,0.302,0.26,0.566,0.398,0.734c0.596,0.727,0.925,1.255,1.059,1.718c0.086,0.301,0.425,1.307,0.649,1.969
							c-0.776-0.157-1.455-0.277-2.137-0.382c-0.097-0.079-0.163-0.134-0.163-0.134s0.027,0.047,0.076,0.121
							c-0.214-0.032-0.432-0.066-0.653-0.095C197.88,140.258,197.899,139.483,197.919,139.157z M210.046,114.374
							c-0.535-0.067-1.054-0.178-1.51-0.254c0.142-1.037,0.357-2.632,0.515-3.837c0.666,0.044,1.31,0.091,1.924,0.143
							C210.644,111.765,210.31,113.162,210.046,114.374z M205.912,128.936c-0.426-0.029-0.961-0.057-1.499-0.069
							c-0.042-0.444-0.168-1.258-0.339-2.261c0.744-0.042,1.501-0.077,2.24-0.1C206.221,127.181,206.07,128.065,205.912,128.936z
							 M195.168,127.515c0.651,0.23,1.455,0.506,1.545,0.507c0.149,0.001,1.305,0.582,1.643,0.688
							c0.003,0.001,0.01,0.009,0.013,0.011c-1.501,0.139-3.469,0.368-3.806,0.684c-0.032,0.028-0.06,0.055-0.091,0.082
							c-0.394-0.716-0.762-1.348-1.032-1.778C194.006,127.647,194.583,127.582,195.168,127.515z M202.976,147.745
							c0.287-0.371,0.602-0.973,0.911-1.656c0.352,0.368,0.708,0.74,1.037,1.092c-0.405,0.754-0.919,1.78-0.958,2.215
							c-0.064,0.727-0.396,3.238-0.396,3.435c0,0.198-1.584-1.188-2.115-2.378c-0.061-0.137-0.132-0.279-0.208-0.424
							C201.965,149.072,202.639,148.179,202.976,147.745z M204.959,143.428c0,0.001,0,0.004-0.001,0.006
							C204.959,143.433,204.959,143.43,204.959,143.428L204.959,143.428z M219.534,113.971c-0.925,0.204-1.715,0.523-2.676,0.363
							c-0.429-0.07-0.992-0.1-1.603-0.106c0.291-0.393,0.654-0.871,0.807-1.022c0.275-0.272,0.757-0.749,0.911-0.775
							c0.158-0.025,2.218-0.223,2.582-0.246c0.363-0.025,0.917-0.306,1.171-0.45c0.072-0.041,0.168-0.104,0.265-0.169
							c0.206,0.022,0.405,0.045,0.604,0.068C220.998,112.302,220.212,113.187,219.534,113.971z M220.306,111.85
							c-0.317,0.139-0.72,0.078-0.72,0.078s0.066-0.245,0.203-0.497c0.364,0.041,0.727,0.082,1.083,0.121
							C220.656,111.672,220.437,111.791,220.306,111.85z M215.955,112.5c-0.105,0.249-1.027,1.461-1.027,1.461
							s-0.096-0.54-0.141-0.78c-0.044-0.239-0.094-1.448-0.125-1.963c-0.009-0.079-0.013-0.218-0.023-0.392
							c0.668,0.083,1.376,0.171,2.105,0.256C216.512,111.539,216.035,112.31,215.955,112.5z M208.863,110.27
							c-0.26,1.135-0.596,2.635-0.837,3.776c-1.945-0.25-2.266-0.055-3.688-0.292c-0.649-0.108-1.754-0.154-2.921-0.157
							c-0.256-0.953-0.469-1.852-0.492-2.385c-0.004-0.079-0.01-0.162-0.017-0.247c0.976-0.111,1.984-0.27,2.189-0.475
							c0.184-0.181,0.355-0.326,0.608-0.428C205.36,110.086,207.159,110.162,208.863,110.27z M190.279,111.207
							c0.186,0.466,0.454,1.29,0.454,1.29s-0.545-0.465-1.148-0.782c-0.288-0.149-0.621-0.314-0.922-0.469
							C189.248,111.254,189.847,111.245,190.279,111.207z M190.68,111.159c0.626-0.096,0.84-0.026,1.675-0.123
							c-0.245,0.209-0.773,0.705-0.916,0.778c-0.143,0.078-0.456,0.252-0.456,0.252S190.802,111.556,190.68,111.159z
							 M191.333,112.685c0.273-0.045,1.102-0.384,1.246-0.369c0.142,0.016,1.903-0.38,1.903-0.38s-0.961,0.082-1.161,0.07
							c-0.202-0.014-0.905-0.059-0.905-0.059l0.7-1.029c0.324-0.059,0.678-0.117,1.015-0.089c0.509,0.043,2.125,0.17,2.892,0.043
							c0.765-0.128,1.315,0.34,2.253,0.255c0.029-0.004,0.064-0.007,0.097-0.009c0.186,0.664,0.346,1.267,0.432,1.679
							c0.035,0.177,0.104,0.46,0.189,0.817c-1.02,0.024-1.958,0.076-2.536,0.141c-1.287,0.142-4.105,0.346-6.293,0.506
							C191.168,113.47,191.205,112.709,191.333,112.685z M197.352,145.306c0.143-0.192,0.458-0.355,0.821-0.476
							c0.142,0.89,0.446,2.468,0.506,2.783c0.042,0.204-0.971-0.219-1.895-0.56c-0.034-0.104-0.054-0.166-0.054-0.166
							s0.145-0.655,0.327-1.357C197.183,145.456,197.293,145.383,197.352,145.306z M198.612,153.559c0,0,0.18-0.239,0.455-0.61
							c0.327,0.388,0.604,0.734,0.736,0.94c0.462,0.727,0.99,2.114,0.99,2.114s-0.789-0.237-1.602-0.558
							C198.851,154.322,198.612,153.559,198.612,153.559z M206.123,145.945c-0.064-0.215,1.535-2.528,1.859-3.478
							c0.28-0.824,0.094-4.727,0.036-5.754c0.163-0.001,0.332-0.001,0.506-0.001c0.364,2.967,0.826,7.049,0.659,7.465
							c-0.121,0.302-0.655,1.759-1.359,3.553C207.049,146.977,206.167,146.088,206.123,145.945z M209.021,136.821
							c-0.007-0.032-0.019-0.069-0.026-0.104c0.662,0.01,1.361,0.033,2.058,0.065c0.008,0.169,0.02,0.314,0.032,0.417
							c0.083,0.715,0.588,4.337,0.462,4.505c-0.125,0.169-1.641,1.853-1.641,1.853s-0.086-0.421-0.086-1.095
							C209.82,141.789,209.23,137.706,209.021,136.821z M211.547,137.031c-0.004-0.049-0.016-0.129-0.029-0.223
							c0.528,0.028,1.044,0.063,1.526,0.1c-0.364,1.495-0.739,3.744-0.739,3.744S211.589,137.494,211.547,137.031z M213.736,136.966
							c0.356,0.033,0.688,0.067,0.975,0.102c0.078,0.01,0.157,0.019,0.237,0.028c-0.018,0.271-0.031,0.532-0.046,0.77
							c-1.022,0.947-1.53,1.56-1.503,1.142C213.414,138.803,213.549,137.995,213.736,136.966z M224.168,125.416
							c-0.021,0.16-0.035,0.275-0.035,0.275l-0.096-0.258C224.078,125.427,224.126,125.423,224.168,125.416z M176.717,111.161
							c0,0-0.678-0.702-0.938-0.998c-0.259-0.296-1.172-0.626-1.474-0.776c-0.191-0.097-0.763-0.391-1.16-0.597
							c0.194-0.015,0.379-0.03,0.553-0.044c1.071,0.22,1.979,0.367,3.091,0.511c0.137,0.018,0.274,0.039,0.416,0.06
							c-0.074,0.243-0.17,0.514-0.269,0.774C176.683,110.741,176.717,111.161,176.717,111.161z M177.484,112.044
							c-0.162-0.351-0.447-0.964-0.417-1.12c0.017-0.096,0.22-0.888,0.399-1.566c1.064,0.177,2.107,0.437,2.689,0.676
							c-0.124,0.495-0.264,1.077-0.312,1.247c-0.086,0.297-0.558,0.895-0.879,1.37c-0.321,0.477-0.408,1.086-0.408,1.086
							S177.644,112.397,177.484,112.044z M178.76,113.979c0,0,0.078-0.465,0.188-0.837c0.107-0.373,0.389-0.771,0.509-0.925
							c0.121-0.154,0.426-0.701,0.567-0.981c0.14-0.282,0.762-0.859,0.762-0.859l-0.731,0.637c0,0,0.105-0.492,0.207-0.935
							c0.689,0.296,1.939,0.711,3.072,0.795c1.149,0.085,2.975,0.213,3.741,0.297c0.314,0.035,0.841,0.062,1.405,0.074
							c0.174,0.098,0.324,0.181,0.408,0.221c0.209,0.1,0.725,0.361,1.093,0.635c0.373,0.273,0.796,0.627,0.796,0.627
							s-0.082,0.814-0.149,1.575c-0.162,0.012-0.317,0.023-0.469,0.034c-2.239,0.166-4.726,0.995-6.054,1.576
							c-0.519,0.227-1.271,0.466-2.143,0.694C181.217,115.964,178.76,113.979,178.76,113.979z M179.107,127.401
							c0.919,0.282,1.918,0.501,2.678,0.614c1.03,0.155,2.863,0.277,4.6,0.289c0.541,0.683,0.936,1.367,1.274,1.984
							c-0.277,0.008-0.534,0.016-0.758,0.024c-1.476,0.053-3.634,0.851-2.951,1.383c0.683,0.532,2.157,0.797,0.227,1.171
							c-1.661,0.32-2.607,0.366-3.272,0.644c-0.392-1.071-0.7-2.165-0.821-3.073C179.956,129.497,179.558,128.407,179.107,127.401z
							 M183.255,137.918c-0.319-0.27-0.722-0.872-1.137-1.647c0.093,0.011,0.159,0.028,0.186,0.053
							c0.226,0.212,2.27,0.373,3.688,0.212c0.606-0.068,1.489-0.155,2.418-0.241c0.011,0.472,0.042,1.921,0.054,3.011
							c-0.823-0.058-1.624-0.118-2.073-0.164c-0.394-0.042-1.106-0.073-1.818-0.079C184.09,138.652,183.641,138.248,183.255,137.918
							z M187.051,150.058c-0.526-1.123,0-1.519-2.904-1.982c-2.906-0.462-2.908-0.924-3.634-1.849
							c-0.297-0.376-0.404-0.618-0.503-0.781c1.645-0.029,4.088,0.108,5.418,0.272c1.665,0.205,4.207,0.451,5.306,0.575
							c0.77,0.087,1.968,0.071,2.919,0.012c0.385,0.609,0.82,1.329,1.14,1.901c-0.167,0.474-0.358,1.056-0.382,1.289
							c-0.043,0.421-0.338,0.842-0.338,0.842l-1.219-2.316c0,0,0.295,1.348,0.42,1.643c0.128,0.295,0.676,1.179,0.716,1.474
							c0.026,0.172,0.02,0.815,0.014,1.364c-0.938-0.989-4.109-3.434-4.109-3.434l2.643,2.842c0,0,0.634,0.506,1.457,1.122
							c-0.002,0.139-0.004,0.252-0.004,0.295c0,0.211-0.042,0.884-0.042,0.884s0.01,0.357,0.026,0.87
							c-1.056-0.438-2.072-0.82-2.823-1.057C188.636,153.229,187.581,151.181,187.051,150.058z M194.072,161.663
							c-0.041,0.336-0.125,1.094-0.125,1.094s-1.389-1.6-1.559-1.937c-0.168-0.335-1.388-2.021-1.43-2.314
							c-0.042-0.296,0.167-2.022,0.167-2.022l-0.295,0.674l-0.252,0.842c0,0-0.295-1.474-0.337-1.894
							c-0.02-0.197-0.177-0.639-0.339-1.056c1.007,0.389,1.963,0.788,2.37,1.087c0.288,0.212,0.961,0.627,1.764,1.106
							c0.022,0.757,0.035,1.429,0.035,1.684C194.072,159.642,194.114,161.326,194.072,161.663z M194.541,157.541
							c0.536,0.317,1.103,0.647,1.645,0.96c-0.185,0.392-0.39,0.806-0.471,0.93c-0.17,0.253-0.757,1.137-0.757,1.137l-0.418-3.025
							V157.541z M197.737,169.873c0,0-3.118-5.978-2.948-6.442c0.17-0.464,0.506-2.232,0.632-2.4
							c0.084-0.111,0.553-1.525,0.861-2.474c0.431,0.249,0.841,0.484,1.198,0.69c0.589,2.385,1.334,5.3,1.646,5.995
							c0.418,0.932,0.663,7.098,0.757,9.956c-0.5-0.739-1.389-2.117-1.389-2.63C198.494,171.851,197.737,169.873,197.737,169.873z
							 M201.653,164.394c-0.088-0.962-1.392-5.4-2.263-8.289c0.951,0.402,1.76,0.723,1.868,0.757
							c0.195,0.067,1.372,2.238,1.775,2.936c0,0,0,0,0,0.001C202.264,162.695,201.731,165.246,201.653,164.394z M202.536,166.798
							c0.145-0.286,0.709-2.085,1.375-4.267c0,0.001,0,0.001,0,0.002c-0.342,1.113-0.21,3.776-0.275,4.305
							c-0.066,0.527,0.721,5.209,0.492,7.229c0,0.001,0,0.004,0,0.005C203.621,171.87,202.22,167.435,202.536,166.798z
							 M206.409,162.544c-0.132,0.728-1.32,10.504-1.32,10.504s-0.993-5.55-0.728-6.475c0.265-0.925,0.661-3.964,0.859-4.69
							c0.081-0.3-0.007-1.648-0.155-3.182c0.735-2.449,1.375-4.608,1.515-5.04c0.122-0.384,0.582-1.636,1.127-3.078
							c0.217,0.452,0.354,0.977,0.354,1.653C208.061,154.088,206.543,161.817,206.409,162.544z M210.25,146.961
							c-0.366,0.519-0.973,3.37-0.973,3.37s0.152-1.08-0.475-1.664c-0.071-0.067-0.162-0.153-0.265-0.251
							c0.706-1.826,1.355-3.435,1.451-3.513c0.21-0.167,2.062-2.693,2.398-2.988c0.338-0.295,1.307-1.727,1.602-2.148
							c0.073-0.104,0.397-0.397,0.848-0.778c-0.062,0.866-0.253,2.287-0.828,3.174C213.383,143.137,210.62,146.443,210.25,146.961z
							 M216.041,138.988c0,0-0.035-0.434-0.06-0.948c0.295-0.242,0.6-0.487,0.892-0.724c0.56,0.061,1.13,0.121,1.681,0.178
							C217.298,138.214,216.041,138.988,216.041,138.988z M232.695,125.362c0.098,0.007,0.203,0.016,0.307,0.024
							c-2.065,1.773-5.12,4.184-6.729,4.902c-0.018,0.002-0.04,0.004-0.059,0.006c-0.444-0.118-0.836-0.239-1.117-0.355
							c-0.598-0.247-1.545-0.56-2.561-0.776c0.219-0.286,0.43-0.552,0.537-0.659c0.275-0.271,0.756-0.748,0.912-0.774
							c0.155-0.025,2.216-0.222,2.582-0.247c0.361-0.023,0.916-0.306,1.17-0.45c0.251-0.144,0.791-0.536,0.759-0.525
							c-0.031,0.011-0.865,0.501-1.182,0.641c-0.317,0.14-0.718,0.079-0.718,0.079s0.096-0.372,0.307-0.671
							c0.21-0.3,0.325-0.847,0.325-0.847s0.081-0.557-0.034-0.003c-0.115,0.553-0.729,1.381-0.873,1.481
							c-0.144,0.101-0.899,0.149-1.597,0.135c-0.7-0.017-1.083,0.16-1.083,0.16s0.428-0.876,0.618-1.222
							c0.102-0.185,0.147-0.546,0.176-0.895c0.231-0.046,0.449-0.1,0.631-0.169C227.059,124.45,230.54,125.195,232.695,125.362z
							 M231.032,113.272c-0.542,0.236-1.804,0.823-2.073,0.902c-0.269,0.078-0.869,0.265-0.869,0.265s0.752-1.581,0.952-1.819
							c0.051-0.06,0.143-0.197,0.256-0.371c1.576-0.014,3.202-0.103,4.422-0.227C232.791,112.459,231.388,113.117,231.032,113.272z"
							/>
					</g>
					<g>
						<path style="fill:#5B3832;" d="M259.002,116.392c0,0,1.402-3.54,4.207-0.295c2.804,3.245,2.804,3.245,2.804,3.245
							s2.202-2.655,4.008-3.834c1.803-1.18,5.205,2.655,5.205,2.655s-5.391-2.014-6.258-0.962c-0.868,1.053-2.857,2.479-2.857,2.479
							s0.561,0.225,0.612,0.452c0.052,0.225-1.631,0.376-1.582,0.075c0.052-0.301,0.256-0.827,0.256-0.827
							S261.638,113.781,259.002,116.392z"/>
					</g>
					<g>
						<path style="fill:#5B3832;" d="M257.876,128.439c0,0,0.7-1.771,2.103-0.148c1.4,1.622,1.4,1.622,1.4,1.622
							s1.101-1.327,2.005-1.917c0.901-0.59,2.602,1.327,2.602,1.327s-2.695-1.007-3.128-0.481c-0.435,0.526-1.43,1.24-1.43,1.24
							s0.28,0.113,0.307,0.226c0.025,0.113-0.815,0.188-0.791,0.037c0.025-0.15,0.128-0.413,0.128-0.413
							S259.193,127.132,257.876,128.439z"/>
					</g>
					<g>
						<path style="fill:#603932;" d="M134.15,131.774c0,0,2.065-3.54,6.195-0.295c4.129,3.245,4.129,3.245,4.129,3.245
							s3.246-2.655,5.901-3.836c2.654-1.18,7.671,2.656,7.671,2.656s-7.942-2.015-9.221-0.962c-1.277,1.052-4.206,2.48-4.206,2.48
							s0.825,0.225,0.901,0.451c0.076,0.225-2.404,0.375-2.329,0.074c0.074-0.301,0.374-0.826,0.374-0.826
							S138.032,129.162,134.15,131.774z"/>
					</g>
				</g>
			</g>
			<g>
				<g>
					<g>
						<g>
							<path style="fill:#5B3832;" d="M306.129,321.841c0,0-16.772-3.442-29.912,6.507c-13.14,9.947-16.371,24.582-17.276,28.331
								c-0.907,3.747,1.118,6.732,3.901,6.592c2.782-0.145,22.533-1.881,30.029-9.531c7.497-7.65,12.605-21.832,13.649-25.956
								C307.569,323.665,307.982,322.117,306.129,321.841z M287.649,326.769c1.648-0.41,3.232-0.661,4.715-0.811
								c0.099,0.633,0.454,1.521,0.997,2.854c0.771,1.89,1.765,5.166,2.563,7.868c-2.785-3.554-6.131-7.792-6.82-8.533
								C288.688,327.702,288.18,327.205,287.649,326.769z M269.951,358.355c-0.194-2.471-0.587-7.43-0.882-10.565
								c1.398,3.241,3.028,7.419,4.067,10.034C271.948,358.054,270.863,358.228,269.951,358.355z M264.15,353.41
								c0.257-1.103,0.794-3.359,1.893-6.157c0.51,3.393,0.938,8.819,1.188,11.387C265.061,358.701,263.465,356.345,264.15,353.41z
								 M275.876,357.254c-1.593-4.143-4.907-12.729-5.507-13.946c-0.339-0.691-0.794-1.505-1.3-2.173
								c2.027-3.327,4.843-6.798,8.767-9.758c2.215-1.673,4.552-2.843,6.863-3.687c0.435,0.674,1.256,1.564,2.496,2.89
								c2.618,2.804,7.285,8.8,9.404,11.432c-1.768,3.108-3.903,6.255-6.263,8.667C287.079,354.009,281.009,356.066,275.876,357.254
								z M301.525,330.884c-0.315,1.276-1.207,3.683-2.525,6.492c-1.013-3.599-2.629-9.27-2.99-10.15
								c-0.186-0.457-0.433-0.978-0.728-1.447c3.513-0.063,5.894,0.4,5.894,0.4C302.641,326.412,302.326,327.63,301.525,330.884z"/>
							<path style="fill:#5B3832;" d="M282.944,336.355c0,0-3.586,0.002-5.359,2.261c-1.776,2.261-2.681,6.064-0.888,7.853
								c1.793,1.795,4.41,2.686,7.258,1.434c2.847-1.246,4.906-3.495,4.524-6.448C288.092,338.496,286.631,336.54,282.944,336.355z"
								/>
						</g>
					</g>
					<g>
						<path style="fill:#D45840;" d="M295.216,273.095c0,0-0.606-1.954,0.652-2.825c1.294-0.897,14.679-9.697,17.233-11.337
							c2.669-1.715,6.572-5.726,7.377-4.295c0.797,1.425,2.414,8.044,3.285,10.83c0.857,2.742,3.966,21.676,4.217,22.195
							c0.253,0.517,0.143,0.742-2.514,1.849c-2.543,1.063-13.492,3.822-14.889,4.03c-1.365,0.203-2.469-4.114-3.27-7.438
							c-0.825-3.425-1.976-7.232-1.976-7.232s-0.439-0.216,2.311-1.352c2.889-1.195,3.539-1.878,4.04,1.215
							c0.482,3.005,0.143,5.829,1.443,5.767c1.318-0.062,7.084,0.185,6.74-2.687c-0.353-2.953-2.918-9.86-3.191-12.441
							c-0.275-2.649-1.986-2.076-3.476-1.374c-1.455,0.688-9.672,6.652-10.623,7.29c-0.934,0.621-1.855,2.421-0.777,4.879
							c1.06,2.416,6.187,19.478,6.732,20.587c0.538,1.101,0.863,2.388,0.147,2.524c-0.704,0.137-2.79,2.809-4.044-1.247
							c-1.304-4.213-7.792-23.389-8.472-25.205C295.477,274.987,295.216,273.095,295.216,273.095z"/>
						<path style="fill:#D45840;" d="M311.354,297.352c0,0,2.56-0.345,6.213-1.206c3.878-0.912,11.091-3.409,11.336-2.909
							c0.248,0.498,0.182,0.146,0.561,1.344c0.369,1.193,1.476,3.081,0.392,3.65c-1.06,0.56-10.915,3.036-13.271,3.491
							c-2.272,0.439-3.845,1.047-4.216,0.509C311.992,301.692,310.465,297.376,311.354,297.352z"/>
					</g>
					<path style="fill:#5B3832;" d="M255.01,272.104c1.478,1.903,0.736,4.913-1.609,6.69c-2.342,1.779-5.417,1.661-6.872-0.257
						c-1.455-1.919-1.78-4.464,1.605-6.689C250.588,270.235,253.122,269.666,255.01,272.104z"/>
					<path style="fill:#D45840;" d="M267.014,323.104c-1.16,3.571-5.692,5.254-10.037,3.788c-4.348-1.464-6.887-5.531-5.687-9.089
						c1.198-3.555,4.195-6.201,10.028-3.787C265.55,315.766,268.507,318.532,267.014,323.104z"/>
					<path style="fill:#F3AF27;" d="M291.087,303.441c-1.108-6.419-10.712-29.248-10.712-29.248s-2.771-7.88-6.827-5.048
						c-3.946,2.756-21.596,22.33-24.612,26.235c-2.97,3.851,0.823,3.297,5.556,4.798c5.017,1.587,22.692,6.299,27.188,6.488
						C286.372,306.873,292.233,310.065,291.087,303.441z M276.655,299.349c-2.4-0.015-12.345-2.342-15.32-3.184
						c-2.879-0.811-5.212-0.441-3.419-2.723c1.808-2.297,12.16-13.537,14.411-15.043c2.282-1.526,3.788,3.054,3.788,3.054
						s4.958,12.641,5.463,16.036C282.101,300.945,279.124,299.375,276.655,299.349z"/>
					<g>
						<path style="fill:#5B3832;" d="M262.409,259.827c-0.037,0-0.076-0.001-0.115-0.003c-0.604-0.04-1.142-0.397-1.415-0.938
							l-12.171-24.033l-6.891,9.356c-0.563,0.763-1.637,0.928-2.4,0.366c-0.765-0.564-0.927-1.637-0.364-2.4l8.545-11.604
							c0.354-0.48,0.923-0.742,1.525-0.692c0.594,0.05,1.12,0.404,1.39,0.936l12.122,23.94l13.741-19.993
							c0.344-0.497,0.918-0.767,1.527-0.741c0.603,0.04,1.141,0.393,1.418,0.933l10.179,19.909l20.773-19.924
							c0.627-0.6,1.602-0.638,2.273-0.091l14.188,11.574c0.734,0.601,0.843,1.682,0.243,2.417c-0.598,0.733-1.679,0.845-2.415,0.245
							l-13.009-10.615l-21.342,20.471c-0.391,0.375-0.939,0.544-1.474,0.453c-0.534-0.091-0.997-0.429-1.244-0.91l-9.92-19.4
							l-13.75,20.004C263.502,259.552,262.972,259.827,262.409,259.827z"/>
					</g>
				</g>
				<g>
					<path style="fill:#D45840;" d="M314.244,215.85c1.503-2.156,5.432-11.865,5.432-11.865s1.712-3.624-0.644-3.708
						c-2.356-0.086-16.189,2.448-18.88,3.132c-2.689,0.684-0.668,1.543,1.059,3.398c1.728,1.861,7.362,7.364,8.928,8.295
						C311.705,216.033,312.746,218.007,314.244,215.85z M310.489,211.743c-0.884-0.521-4.056-3.62-5.027-4.666
						c-0.971-1.045-2.108-1.526-0.596-1.913c1.514-0.385,9.299-1.81,10.628-1.763c1.322,0.047,0.364,2.086,0.364,2.086
						s-2.217,5.466-3.059,6.68C311.954,213.379,311.367,212.269,310.489,211.743z"/>
					<path style="fill:#949844;" d="M237.139,209.943c1.499-2.157,5.43-11.866,5.43-11.866s1.71-3.623-0.644-3.708
						c-2.356-0.086-16.192,2.448-18.88,3.132c-2.689,0.685-0.668,1.543,1.059,3.399c1.728,1.86,7.362,7.363,8.928,8.294
						C234.598,210.127,235.639,212.102,237.139,209.943z M233.38,205.837c-0.882-0.522-4.054-3.621-5.024-4.667
						c-0.972-1.045-2.109-1.526-0.597-1.913c1.514-0.384,9.299-1.809,10.628-1.762c1.321,0.047,0.361,2.086,0.361,2.086
						s-2.214,5.466-3.056,6.68C234.847,207.473,234.26,206.362,233.38,205.837z"/>
					<path style="fill:#F3AF27;" d="M329.056,203.455c-1.128,1.447-4.493,8.797-5.469,11.216c-0.974,2.425-2.543,3.951,0.131,3.729
						c2.672-0.221,16.101-2.345,18.22-3.219c2.119-0.877-0.608-3.895-0.608-3.895s-6.711-8.314-8.773-9.951
						C330.495,199.698,330.181,202.006,329.056,203.455z M332.425,205.476c1.158,0.919,4.94,5.599,4.94,5.599
						s1.53,1.699,0.342,2.192c-1.194,0.49-8.753,1.685-10.255,1.814c-1.506,0.122-0.623-0.738-0.073-2.098
						c0.547-1.364,2.441-5.5,3.077-6.315C331.087,205.852,331.265,204.553,332.425,205.476z"/>
					<path style="fill:#F3AF27;" d="M261.241,201.931c-1.765,0.501-8.816,4.451-11.034,5.83c-2.217,1.382-4.382,1.688-2.096,3.086
						c2.287,1.399,14.384,7.609,16.609,8.153c2.228,0.544,1.809-3.503,1.809-3.503s-0.514-10.672-1.213-13.211
						C264.62,199.748,263.004,201.425,261.241,201.931z M262.769,205.551c0.393,1.426,0.685,7.434,0.685,7.434
						s0.232,2.276-1.018,1.973c-1.255-0.309-8.06-3.805-9.35-4.588c-1.287-0.791-0.067-0.962,1.179-1.735
						c1.246-0.78,5.216-3.001,6.211-3.284C261.466,205.065,262.375,204.12,262.769,205.551z"/>
					<g>
						<g>
							<path style="fill:#FFFFFF;" d="M341.394,201.282c-0.25-0.442-0.196-0.944,0.117-1.124c0.06-0.034,6.083-3.436,8.797-4.832
								c2.341-1.203,6.695-3.114,7.686-3.556c0.333-0.148,0.913,0.042,1.137,0.489c0.227,0.455,0.14,0.94-0.191,1.087
								c-0.052,0.021-5.065,2.214-7.759,3.599c-2.699,1.391-8.703,4.782-8.763,4.816c-0.315,0.178-0.775-0.037-1.023-0.477
								C341.394,201.282,341.394,201.282,341.394,201.282z"/>
						</g>
						<g>
							<path style="fill:#FFFFFF;" d="M346.813,209.75c-0.25-0.441-0.205-0.939,0.099-1.111c0.057-0.033,5.853-3.309,8.474-4.65
								c2.252-1.156,6.159-3.505,7.117-3.927c0.319-0.142,0.887,0.056,1.112,0.503c0.228,0.454,0.15,0.933-0.171,1.073
								c-0.048,0.02-4.59,2.639-7.189,3.969c-2.6,1.335-8.382,4.603-8.439,4.635c-0.305,0.171-0.754-0.049-1.003-0.49
								C346.813,209.75,346.813,209.75,346.813,209.75z"/>
						</g>
						<g>
							<path style="fill:#FFFFFF;" d="M360.988,195.987c0.254,0.44,0.199,0.959-0.12,1.157c-0.059,0.038-6.354,3.472-9.102,5.037
								c-2.366,1.348-6.579,3.87-7.584,4.371c-0.333,0.169-0.923,0.003-1.15-0.443c-0.227-0.455-0.14-0.958,0.197-1.124
								c0.05-0.023,4.93-2.868,7.654-4.421c2.734-1.556,9.01-4.98,9.07-5.019c0.32-0.195,0.783,0,1.034,0.44
								C360.988,195.987,360.988,195.987,360.988,195.987z"/>
						</g>
					</g>
					<g>
						<g>
							<path style="fill:#949844;" d="M271.982,205.498c-0.017-0.508,0.267-0.926,0.627-0.939c0.068-0.001,6.982-0.204,10.036-0.173
								c2.629,0.026,7.372,0.367,8.456,0.438c0.364,0.024,0.789,0.463,0.778,0.963c-0.012,0.508-0.316,0.896-0.678,0.872
								c-0.054-0.005-5.513-0.402-8.542-0.434c-3.034-0.027-9.926,0.173-9.996,0.176c-0.361,0.01-0.668-0.394-0.682-0.9
								C271.982,205.498,271.982,205.498,271.982,205.498z"/>
						</g>
						<g>
							<path style="fill:#949844;" d="M272.828,215.515c-0.015-0.507,0.255-0.927,0.603-0.938c0.067-0.002,6.721-0.198,9.664-0.163
								c2.532,0.026,7.084-0.228,8.129-0.155c0.349,0.024,0.757,0.463,0.749,0.963c-0.012,0.508-0.303,0.896-0.651,0.871
								c-0.052-0.006-5.292,0.193-8.211,0.159c-2.923-0.031-9.561,0.164-9.627,0.165c-0.348,0.011-0.644-0.394-0.656-0.901
								C272.828,215.515,272.828,215.515,272.828,215.515z"/>
						</g>
						<g>
							<path style="fill:#949844;" d="M291.787,209.951c0.018,0.508-0.273,0.941-0.646,0.967c-0.071,0.006-7.239,0.109-10.401,0.212
								c-2.722,0.09-7.624,0.356-8.747,0.331c-0.373-0.007-0.817-0.429-0.813-0.928c0.013-0.509,0.324-0.913,0.7-0.903
								c0.054,0.002,5.697-0.238,8.831-0.341c3.144-0.103,10.294-0.206,10.363-0.212c0.376-0.023,0.695,0.365,0.713,0.871
								C291.787,209.951,291.787,209.951,291.787,209.951z"/>
						</g>
					</g>
					<path style="fill:#F3AF27;" d="M365.81,188.841c1.434-1.04,3.628-0.424,4.878,1.339c1.251,1.762,1.092,4.018-0.352,5.04
						c-1.444,1.023-3.32,1.2-4.873-1.336C364.337,192.044,363.976,190.171,365.81,188.841z"/>
					<path style="fill:#FFFFFF;" d="M249.864,198.252c0.044-1.194,1.282-2.106,2.74-2.039c1.457,0.067,2.592,1.088,2.535,2.281
						c-0.055,1.194-0.739,2.266-2.734,2.038C250.957,200.369,249.81,199.782,249.864,198.252z"/>
					<path style="fill:#FFFFFF;" d="M301.77,216.245c-0.331,1.017-1.621,1.497-2.859,1.079c-1.238-0.417-1.965-1.576-1.621-2.589
						c0.341-1.013,1.196-1.767,2.859-1.079C301.353,214.154,302.194,214.942,301.77,216.245z"/>
				</g>
			</g>
		</g>
		<text transform="matrix(1 0 0 1 119.8418 431.2158)"><tspan x="0" y="0" style="fill:#D45840; font-family:'Rubik-Black'; font-size:39.0463px;">A</tspan><tspan x="29.479" y="0" style="fill:#949844; font-family:'Rubik-Black'; font-size:39.0463px;">F</tspan><tspan x="54.703" y="0" style="fill:#F3AF27; font-family:'Rubik-Black'; font-size:39.0463px;">R</tspan><tspan x="82.895" y="0" style="fill:#D45840; font-family:'Rubik-Black'; font-size:39.0463px;">I</tspan><tspan x="97.263" y="0" style="fill:#949844; font-family:'Rubik-Black'; font-size:39.0463px;">C</tspan><tspan x="125.884" y="0" style="fill:#F3AF27; font-family:'Rubik-Black'; font-size:39.0463px;">A</tspan><tspan x="155.363" y="0" style="fill:#5B3832; font-family:'Rubik-Black'; font-size:39.0463px;"> MAP </tspan></text>
	</g>
</g>
</svg>
